<?xml version="1.0" encoding="utf-8"?>
<svg version="1.1" xmlns:xlink="http://www.w3.org/1999/xlink" width="25px" height="18px" xmlns="http://www.w3.org/2000/svg">
  <g transform="matrix(1 0 0 1 -155 -6 )">
    <path d="M 18.561662946428573 14.1015625  C 20.426432291666668 12.8359375  21.97730654761905 11.135416666666664  23.214285714285715 9  C 21.800595238095237 6.541666666666667  20.028831845238095 4.703125  17.898995535714285 3.484374999999999  C 18.466331845238095 4.567708333333331  18.75 5.739583333333332  18.75 6.999999999999999  C 18.75 8.927083333333332  18.138485863095237 10.575520833333332  16.915457589285715 11.9453125  C 15.692429315476192 13.315104166666664  14.220610119047619 14  12.5 14  C 10.779389880952381 14  9.30757068452381 13.315104166666664  8.084542410714286 11.9453125  C 6.861514136904763 10.575520833333332  6.25 8.927083333333332  6.25 6.999999999999999  C 6.25 5.739583333333332  6.533668154761905 4.567708333333331  7.1010044642857135 3.484374999999999  C 4.971168154761905 4.703125  3.1994047619047623 6.541666666666667  1.7857142857142856 9  C 3.0226934523809526 11.135416666666664  4.573567708333334 12.8359375  6.438337053571429 14.1015625  C 8.303106398809526 15.3671875  10.323660714285714 16  12.5 16  C 14.676339285714285 16  16.696893601190478 15.3671875  18.561662946428573 14.1015625  Z M 12.974330357142858 3.5312500000000004  C 13.104538690476192 3.385416666666667  13.169642857142858 3.2083333333333326  13.169642857142858 2.999999999999999  C 13.169642857142858 2.791666666666666  13.104538690476192 2.6145833333333317  12.974330357142858 2.46875  C 12.844122023809526 2.3229166666666647  12.686011904761903 2.2499999999999982  12.5 2.25  C 11.337425595238097 2.2499999999999982  10.339936755952381 2.7161458333333326  9.507533482142858 3.6484375  C 8.675130208333334 4.580729166666667  8.258928571428571 5.697916666666667  8.258928571428571 6.999999999999999  C 8.258928571428571 7.208333333333332  8.324032738095239 7.385416666666667  8.454241071428571 7.53125  C 8.584449404761905 7.677083333333332  8.742559523809526 7.75  8.928571428571429 7.75  C 9.114583333333334 7.75  9.272693452380953 7.677083333333332  9.402901785714286 7.53125  C 9.533110119047619 7.385416666666667  9.598214285714286 7.208333333333332  9.598214285714286 6.999999999999999  C 9.598214285714286 6.104166666666666  9.88188244047619 5.338541666666666  10.44921875 4.703125  C 11.01655505952381 4.067708333333333  11.70014880952381 3.7499999999999987  12.5 3.750000000000001  C 12.686011904761903 3.7499999999999987  12.844122023809526 3.677083333333332  12.974330357142858 3.5312500000000004  Z M 24.720982142857142 7.921874999999999  C 24.90699404761905 8.286458333333332  25 8.645833333333332  25 9  C 25 9.354166666666664  24.90699404761905 9.713541666666668  24.720982142857142 10.078124999999998  C 23.418898809523814 12.473958333333332  21.668061755952387 14.393229166666668  19.468470982142858 15.8359375  C 17.268880208333336 17.278645833333332  14.94605654761905 18  12.5 18  C 10.053943452380953 18  7.731119791666667 17.276041666666668  5.531529017857143 15.828125  C 3.331938244047619 14.380208333333332  1.5811011904761907 12.463541666666664  0.27901785714285715 10.078124999999998  C 0.09300595238095237 9.713541666666668  0 9.354166666666664  0 9  C 0 8.645833333333332  0.09300595238095237 8.286458333333332  0.27901785714285715 7.921874999999999  C 1.5811011904761907 5.536458333333333  3.331938244047619 3.6197916666666656  5.531529017857143 2.171875  C 7.731119791666667 0.7239583333333319  10.053943452380953 0  12.5 0  C 14.94605654761905 0  17.268880208333336 0.7239583333333319  19.468470982142858 2.171875  C 21.668061755952387 3.6197916666666656  23.418898809523814 5.536458333333333  24.720982142857142 7.921874999999999  Z " fill-rule="nonzero" fill="#000000" stroke="none" transform="matrix(1 0 0 1 155 6 )" />
  </g>
</svg>