<?xml version="1.0" encoding="UTF-8"?> <svg xmlns="http://www.w3.org/2000/svg" xmlns:xlink="http://www.w3.org/1999/xlink" id="Layer_1" data-name="Layer 1" viewBox="0 0 503.82 244.43"><defs><style>.cls-1{fill:none;}.cls-2{clip-path:url(#clip-path);}.cls-3{fill:#a83c24;}.cls-4{fill:#fed9b3;}.cls-5{fill:#d1a10d;}.cls-6{fill:#2fabc0;}.cls-7{fill:#00743e;}.cls-8{fill:#c74832;}.cls-9{fill:#fcbd78;}.cls-10{fill:#ffc20e;}.cls-11{fill:#7bd3f7;}.cls-12{fill:#8bc6d5;}.cls-13{fill:#0098b0;}.cls-14{fill:#c77b68;}.cls-15{fill:#ddb0a4;}.cls-16{fill:#d63d27;}.cls-17{fill:#00aeef;}.cls-18{fill:#37b57f;}.cls-19{fill:#88ae92;}.cls-20{fill:#e4c172;}.cls-21{fill:#ba131a;}.cls-22{fill:#f7941d;}.cls-23{fill:#6c71ab;}.cls-24{fill:#a82933;}</style><clipPath id="clip-path" transform="translate(-27 -24.36)"><rect class="cls-1" x="27" y="24.36" width="503.82" height="244.42"></rect></clipPath></defs><title>AMRRIC coloured logo</title><g class="cls-2"><path class="cls-3" d="M36.47,162c3.52,0,6.39-2.55,6.39-5.7s-2.87-5.7-6.39-5.7-6.39,2.55-6.39,5.7,2.86,5.7,6.39,5.7" transform="translate(-27 -24.36)"></path><path class="cls-4" d="M280.45,162c3.53,0,6.39-2.55,6.39-5.7s-2.86-5.7-6.39-5.7-6.39,2.55-6.39,5.7,2.86,5.7,6.39,5.7" transform="translate(-27 -24.36)"></path><path class="cls-5" d="M158.46,162c3.53,0,6.39-2.55,6.39-5.7s-2.86-5.7-6.39-5.7-6.39,2.55-6.39,5.7,2.86,5.7,6.39,5.7" transform="translate(-27 -24.36)"></path><path class="cls-6" d="M402.44,162c3.53,0,6.39-2.55,6.39-5.7s-2.86-5.7-6.39-5.7-6.39,2.55-6.39,5.7,2.86,5.7,6.39,5.7" transform="translate(-27 -24.36)"></path><path class="cls-7" d="M97.46,162c3.53,0,6.39-2.55,6.39-5.7s-2.86-5.7-6.39-5.7-6.39,2.55-6.39,5.7,2.86,5.7,6.39,5.7" transform="translate(-27 -24.36)"></path><path class="cls-8" d="M341.45,162c3.53,0,6.39-2.55,6.39-5.7s-2.86-5.7-6.39-5.7-6.39,2.55-6.39,5.7,2.86,5.7,6.39,5.7" transform="translate(-27 -24.36)"></path><path class="cls-4" d="M219.45,162c3.53,0,6.39-2.55,6.39-5.7s-2.86-5.7-6.39-5.7-6.38,2.55-6.38,5.7,2.86,5.7,6.38,5.7" transform="translate(-27 -24.36)"></path><path class="cls-9" d="M463.44,162c3.53,0,6.39-2.55,6.39-5.7s-2.86-5.7-6.39-5.7-6.39,2.55-6.39,5.7,2.86,5.7,6.39,5.7" transform="translate(-27 -24.36)"></path><path class="cls-10" d="M67,162c3.53,0,6.39-2.55,6.39-5.7s-2.86-5.7-6.39-5.7-6.38,2.55-6.38,5.7S63.44,162,67,162" transform="translate(-27 -24.36)"></path><path class="cls-11" d="M311,162c3.53,0,6.39-2.55,6.39-5.7s-2.86-5.7-6.39-5.7-6.39,2.55-6.39,5.7,2.86,5.7,6.39,5.7" transform="translate(-27 -24.36)"></path><path class="cls-12" d="M189,162c3.52,0,6.39-2.55,6.39-5.7s-2.87-5.7-6.39-5.7-6.39,2.55-6.39,5.7,2.86,5.7,6.39,5.7" transform="translate(-27 -24.36)"></path><path class="cls-7" d="M432.94,162c3.53,0,6.39-2.55,6.39-5.7s-2.86-5.7-6.39-5.7-6.39,2.55-6.39,5.7,2.86,5.7,6.39,5.7" transform="translate(-27 -24.36)"></path><path class="cls-13" d="M128,162c3.53,0,6.39-2.55,6.39-5.7s-2.86-5.7-6.39-5.7-6.39,2.55-6.39,5.7,2.86,5.7,6.39,5.7" transform="translate(-27 -24.36)"></path><path class="cls-10" d="M371.94,162c3.53,0,6.39-2.55,6.39-5.7s-2.86-5.7-6.39-5.7-6.38,2.55-6.38,5.7,2.86,5.7,6.38,5.7" transform="translate(-27 -24.36)"></path><path class="cls-3" d="M250,162c3.53,0,6.39-2.55,6.39-5.7s-2.86-5.7-6.39-5.7-6.39,2.55-6.39,5.7,2.86,5.7,6.39,5.7" transform="translate(-27 -24.36)"></path><path class="cls-14" d="M493.94,162c3.53,0,6.39-2.55,6.39-5.7s-2.86-5.7-6.39-5.7-6.39,2.55-6.39,5.7,2.86,5.7,6.39,5.7" transform="translate(-27 -24.36)"></path><path class="cls-15" d="M524.44,162c3.52,0,6.38-2.55,6.38-5.7s-2.86-5.7-6.38-5.7-6.39,2.55-6.39,5.7,2.86,5.7,6.39,5.7" transform="translate(-27 -24.36)"></path><path class="cls-16" d="M51.72,162c3.52,0,6.38-2.55,6.38-5.7s-2.86-5.7-6.38-5.7-6.39,2.55-6.39,5.7,2.86,5.7,6.39,5.7" transform="translate(-27 -24.36)"></path><path class="cls-13" d="M295.7,162c3.53,0,6.39-2.55,6.39-5.7s-2.86-5.7-6.39-5.7-6.39,2.55-6.39,5.7,2.86,5.7,6.39,5.7" transform="translate(-27 -24.36)"></path><path class="cls-17" d="M173.71,162c3.53,0,6.39-2.55,6.39-5.7s-2.86-5.7-6.39-5.7-6.39,2.55-6.39,5.7,2.86,5.7,6.39,5.7" transform="translate(-27 -24.36)"></path><path class="cls-18" d="M417.69,162c3.53,0,6.39-2.55,6.39-5.7s-2.86-5.7-6.39-5.7-6.39,2.55-6.39,5.7,2.86,5.7,6.39,5.7" transform="translate(-27 -24.36)"></path><path class="cls-18" d="M112.71,162c3.53,0,6.39-2.55,6.39-5.7s-2.86-5.7-6.39-5.7-6.39,2.55-6.39,5.7,2.86,5.7,6.39,5.7" transform="translate(-27 -24.36)"></path><path class="cls-19" d="M356.7,162c3.52,0,6.38-2.55,6.38-5.7s-2.86-5.7-6.38-5.7-6.39,2.55-6.39,5.7,2.86,5.7,6.39,5.7" transform="translate(-27 -24.36)"></path><path class="cls-20" d="M234.7,162c3.53,0,6.39-2.55,6.39-5.7s-2.86-5.7-6.39-5.7-6.39,2.55-6.39,5.7,2.87,5.7,6.39,5.7" transform="translate(-27 -24.36)"></path><path class="cls-4" d="M478.69,162c3.53,0,6.39-2.55,6.39-5.7s-2.86-5.7-6.39-5.7-6.39,2.55-6.39,5.7,2.86,5.7,6.39,5.7" transform="translate(-27 -24.36)"></path><path class="cls-21" d="M82.21,162c3.53,0,6.39-2.55,6.39-5.7s-2.86-5.7-6.39-5.7-6.39,2.55-6.39,5.7,2.87,5.7,6.39,5.7" transform="translate(-27 -24.36)"></path><path class="cls-14" d="M326.2,162c3.53,0,6.39-2.55,6.39-5.7s-2.86-5.7-6.39-5.7-6.39,2.55-6.39,5.7,2.86,5.7,6.39,5.7" transform="translate(-27 -24.36)"></path><path class="cls-3" d="M204.21,162c3.52,0,6.38-2.55,6.38-5.7s-2.86-5.7-6.38-5.7-6.39,2.55-6.39,5.7,2.86,5.7,6.39,5.7" transform="translate(-27 -24.36)"></path><path class="cls-22" d="M448.19,162c3.53,0,6.39-2.55,6.39-5.7s-2.86-5.7-6.39-5.7-6.39,2.55-6.39,5.7,2.86,5.7,6.39,5.7" transform="translate(-27 -24.36)"></path><path class="cls-22" d="M143.21,162c3.53,0,6.39-2.55,6.39-5.7s-2.86-5.7-6.39-5.7-6.39,2.55-6.39,5.7,2.86,5.7,6.39,5.7" transform="translate(-27 -24.36)"></path><path class="cls-23" d="M387.19,162c3.53,0,6.39-2.55,6.39-5.7s-2.86-5.7-6.39-5.7-6.39,2.55-6.39,5.7,2.87,5.7,6.39,5.7" transform="translate(-27 -24.36)"></path><path class="cls-5" d="M265.2,162c3.53,0,6.39-2.55,6.39-5.7s-2.86-5.7-6.39-5.7-6.39,2.55-6.39,5.7,2.86,5.7,6.39,5.7" transform="translate(-27 -24.36)"></path><path class="cls-16" d="M509.19,162c3.53,0,6.39-2.55,6.39-5.7s-2.86-5.7-6.39-5.7-6.39,2.55-6.39,5.7,2.86,5.7,6.39,5.7" transform="translate(-27 -24.36)"></path><path class="cls-24" d="M234.68,104.34c-13,.33-19.17,1.45-23.63,3.68s-6.8,5.68-6.8,11c0,5.8,4.46,9.7,11.15,9.7a21,21,0,0,0,16.38-7.92c2.12-2.67,2.9-4.79,2.9-9Zm0-12.82c0-7.36-4-10.59-12.82-10.59-8.13,0-12.15,3.12-14,8.25a4.26,4.26,0,0,1-4.35,2.9,6.43,6.43,0,0,1-2.56-.45c-2.12-.67-3.68-2.23-3.68-4.23a5.6,5.6,0,0,1,.22-1.34c1.12-3.46,4-6.69,6.58-8.7,3.9-3,8.92-4.9,17.94-4.9,14.94,0,22.3,5.91,22.3,19.06V122a36.4,36.4,0,0,0,1.22,9.81,4,4,0,0,1,.23,1.11c0,1.79-1.68,3.35-4.46,3.57h-1c-2.23,0-4.23-.67-4.68-2.68a32.82,32.82,0,0,1-.67-5.57c-4.23,4.79-10.14,9.14-21.17,9.14-12.26,0-19.73-6.91-19.73-18.39,0-10.48,6.24-17.17,16.83-20.06,6.13-1.68,11.92-2.34,23.85-2.57Z" transform="translate(-27 -24.36)"></path><path class="cls-24" d="M343.13,132c0,3-2.23,4.46-5.13,4.46-3.12,0-5-1.45-5-4.46V96.31c0-9.47-2.68-14.82-10.7-14.82-5.91,0-9.81,3.57-12.49,7.58a19.7,19.7,0,0,0-3,10V132c0,3-2.11,4.46-5,4.46-3.12,0-5-1.45-5-4.46V96.31c0-9.47-2.78-14.82-10.7-14.82-5.9,0-9.47,3.45-12.15,7.47a19.94,19.94,0,0,0-3,10.7V132c0,3-2,4.46-4.9,4.46-3.12,0-5.13-1.45-5.13-4.46V77.7c0-2.9,2.12-4.35,5.24-4.35,2.79,0,4.79,1.45,4.79,4.35V80a32,32,0,0,1-.78,5.35c2.79-6.58,7.47-12.82,18.39-12.82,9.81,0,15.16,4.46,16.61,12.15,3.23-5.79,7.25-12.15,19.62-12.15,13.15,0,18.39,7.92,18.39,21.51Z" transform="translate(-27 -24.36)"></path><path class="cls-24" d="M360.18,77.7c0-2.9,2.12-4.35,5.24-4.35,2.79,0,5,1.45,5,4.35v2.45a48.85,48.85,0,0,1-.67,5.24,18.72,18.72,0,0,1,17.05-12.6,19.1,19.1,0,0,1,2.45-.11,19.73,19.73,0,0,1,4.46.56,3.67,3.67,0,0,1,3.57,4,12.61,12.61,0,0,1-.22,1.9c-.45,2.34-2,4.34-4.35,4.34a3.08,3.08,0,0,1-1-.11,22.68,22.68,0,0,0-5.35-.67c-4.8.12-8.47,2.57-11.26,6.13a20,20,0,0,0-4.68,12.38V132c0,3-2.23,4.46-5,4.46-3.12,0-5.24-1.45-5.24-4.46Z" transform="translate(-27 -24.36)"></path><path class="cls-24" d="M408.33,77.7c0-2.9,2.12-4.35,5.24-4.35,2.79,0,5,1.45,5,4.35v2.45a48.85,48.85,0,0,1-.67,5.24A18.72,18.72,0,0,1,435,72.79a19.1,19.1,0,0,1,2.45-.11,19.73,19.73,0,0,1,4.46.56,3.68,3.68,0,0,1,3.57,4,12.61,12.61,0,0,1-.22,1.9c-.45,2.34-2,4.34-4.35,4.34a3.17,3.17,0,0,1-1-.11,22.59,22.59,0,0,0-5.34-.67c-4.8.12-8.48,2.57-11.26,6.13a20,20,0,0,0-4.68,12.38V132c0,3-2.23,4.46-5,4.46-3.12,0-5.24-1.45-5.24-4.46Z" transform="translate(-27 -24.36)"></path><path class="cls-24" d="M454.92,77.7c0-2.9,1.89-4.35,5-4.35s5.12,1.45,5.12,4.35V132c0,3-2.12,4.46-5.12,4.46s-5-1.45-5-4.46Zm12.59-22.07a7.52,7.52,0,1,1-7.46-7.47,7.42,7.42,0,0,1,7.46,7.47" transform="translate(-27 -24.36)"></path><path class="cls-24" d="M506.19,72.35c14.71,0,20.73,8.14,23.52,15.16a4.94,4.94,0,0,1,.33,1.67c0,2.12-1.67,3.45-3.34,4.12a9,9,0,0,1-2.45.34,3.89,3.89,0,0,1-3.9-2.57c-2.12-5.68-5.47-10-13.94-10-11.59,0-17.94,9.81-17.94,24,0,14.6,6.24,23.85,18.06,23.85,8.69,0,12.14-4.24,14.26-10.26a4.19,4.19,0,0,1,4.13-3,5.89,5.89,0,0,1,2.34.44c2,.45,3.56,1.78,3.56,3.79a4.76,4.76,0,0,1-.44,2c-3,7.69-8.92,15.71-24.08,15.71-18.05,0-28.2-13.26-28.2-32.43s9.81-32.77,28.09-32.77" transform="translate(-27 -24.36)"></path></g><path class="cls-24" d="M34.07,201.35h7.84L38.2,187.27h-.08Zm1.76-18.2h4.82l7.83,29.14H44.73l-2.08-8H33.34l-2.16,8H27.42Z" transform="translate(-27 -24.36)"></path><g class="cls-2"><path class="cls-24" d="M50.4,190.42h3.26V193h.09a5.84,5.84,0,0,1,5.3-3.15c5.76,0,5.76,4.37,5.76,6.94v15.51H61.38v-15.1c0-1.67-.12-4.41-3.23-4.41a4.22,4.22,0,0,0-4.32,4.41v15.1H50.4Z" transform="translate(-27 -24.36)"></path></g><path class="cls-24" d="M69.5,190.42h3.43v21.87H69.5Zm0-7.27h3.43v3.92H69.5Z" transform="translate(-27 -24.36)"></path><g class="cls-2"><path class="cls-24" d="M78,190.42h3.26V193h.09a5.84,5.84,0,0,1,5.3-3.15c2.53,0,4,1,4.74,3.47a6.07,6.07,0,0,1,5.18-3.47c5.76,0,5.76,4.37,5.76,6.94v15.51H98.85v-15.1c0-1.67-.12-4.41-2.94-4.41a4,4,0,0,0-4.08,4.41v15.1H88.4v-15.1c0-1.67-.12-4.41-2.94-4.41a4,4,0,0,0-4.08,4.41v15.1H78Z" transform="translate(-27 -24.36)"></path><path class="cls-24" d="M117.13,200.38c-1.26,1.34-4.29,1.63-5.84,2.57-1.1.69-1.67,1.55-1.67,3.47,0,2.2.78,3.75,3.1,3.75a4.46,4.46,0,0,0,4.41-4.16ZM106.56,197c0-5,2.12-7.19,7.35-7.19,6.65,0,6.65,4,6.65,6.29v12.21c0,.89,0,1.75,1.06,1.75a1.27,1.27,0,0,0,.82-.2v2.45a12.89,12.89,0,0,1-2,.2c-1.31,0-2.94,0-3.11-2.82h-.08a6.19,6.19,0,0,1-5.26,3.15c-4.08,0-6-2.45-6-6.37,0-3.06,1.3-5.19,4.12-6l4.61-1.39c2.49-.78,2.49-1.47,2.49-3.31,0-2-1.22-3.22-3.51-3.22-3.75,0-3.75,3.51-3.75,4.28V197Z" transform="translate(-27 -24.36)"></path></g><rect class="cls-24" x="98.41" y="158.79" width="3.43" height="29.15"></rect><polygon class="cls-24" points="116.53 158.79 122.57 158.79 128.41 181.9 128.49 181.9 134.33 158.79 140.37 158.79 140.37 187.94 136.78 187.94 136.78 162.47 136.7 162.47 130.25 187.94 126.66 187.94 120.2 162.47 120.12 162.47 120.12 187.94 116.53 187.94 116.53 158.79"></polygon><g class="cls-2"><path class="cls-24" d="M182.1,200.38c-1.26,1.34-4.28,1.63-5.83,2.57-1.1.69-1.68,1.55-1.68,3.47,0,2.2.78,3.75,3.11,3.75a4.45,4.45,0,0,0,4.4-4.16ZM171.53,197c0-5,2.13-7.19,7.35-7.19,6.65,0,6.65,4,6.65,6.29v12.21c0,.89,0,1.75,1.06,1.75a1.25,1.25,0,0,0,.82-.2v2.45a12.6,12.6,0,0,1-2,.2c-1.31,0-2.94,0-3.1-2.82h-.08a6.22,6.22,0,0,1-5.27,3.15c-4.08,0-6-2.45-6-6.37,0-3.06,1.31-5.19,4.12-6l4.62-1.39c2.49-.78,2.49-1.47,2.49-3.31,0-2-1.23-3.22-3.51-3.22-3.76,0-3.76,3.51-3.76,4.28V197Z" transform="translate(-27 -24.36)"></path><path class="cls-24" d="M190.18,190.42h3.27V193h.08a5.85,5.85,0,0,1,5.31-3.15c5.75,0,5.75,4.37,5.75,6.94v15.51h-3.43v-15.1c0-1.67-.12-4.41-3.22-4.41a4.22,4.22,0,0,0-4.33,4.41v15.1h-3.43Z" transform="translate(-27 -24.36)"></path><path class="cls-24" d="M219.12,200.38c-1.26,1.34-4.28,1.63-5.84,2.57-1.1.69-1.67,1.55-1.67,3.47,0,2.2.78,3.75,3.1,3.75a4.46,4.46,0,0,0,4.41-4.16ZM208.55,197c0-5,2.12-7.19,7.35-7.19,6.65,0,6.65,4,6.65,6.29v12.21c0,.89,0,1.75,1.06,1.75a1.25,1.25,0,0,0,.82-.2v2.45a12.74,12.74,0,0,1-2,.2c-1.31,0-2.94,0-3.1-2.82h-.09a6.19,6.19,0,0,1-5.26,3.15c-4.08,0-6-2.45-6-6.37,0-3.06,1.3-5.19,4.12-6l4.61-1.39c2.49-.78,2.49-1.47,2.49-3.31,0-2-1.22-3.22-3.51-3.22-3.75,0-3.75,3.51-3.75,4.28V197Z" transform="translate(-27 -24.36)"></path><path class="cls-24" d="M230.38,201.36c0,3.55.54,8,4,8,3.72,0,4.45-3.52,4.45-8,0-4.25-.73-8.58-4.4-8.58-3.19,0-4,3.35-4,8.58M242,210.91c0,6.53-3,8.9-7.43,8.9-1.35,0-6.61,0-7.19-5.47h3.43c.17,2,1.72,2.77,3.51,2.77,4.41,0,4.25-3.39,4.25-4.9v-2.85h-.08a5.21,5.21,0,0,1-4.94,2.93c-6.37,0-6.78-8-6.78-10.93,0-5.92,1.59-11.52,7.15-11.52a4.93,4.93,0,0,1,4.73,3.35h.08v-2.77H242Z" transform="translate(-27 -24.36)"></path><path class="cls-24" d="M257.28,199.07v-1.18c0-2.45-.77-5.35-3.79-5.35-3.6,0-4,4.41-4,5.71v.82Zm-7.92,2.69c0,3.35,0,8.41,4.21,8.41,3.26,0,3.71-3.43,3.71-5.06h3.43c0,2.33-1.39,7.76-7.35,7.76-5.34,0-7.59-3.72-7.59-11.23,0-5.47,1.06-11.8,7.8-11.8s7.3,5.84,7.3,10.54v1.38Z" transform="translate(-27 -24.36)"></path><path class="cls-24" d="M265,190.42h3.27V193h.08a5.85,5.85,0,0,1,5.31-3.15c2.53,0,4,1,4.73,3.47a6.08,6.08,0,0,1,5.19-3.47c5.75,0,5.75,4.37,5.75,6.94v15.51h-3.43v-15.1c0-1.67-.12-4.41-2.94-4.41a4,4,0,0,0-4.08,4.41v15.1H275.4v-15.1c0-1.67-.12-4.41-2.94-4.41a4,4,0,0,0-4.08,4.41v15.1H265Z" transform="translate(-27 -24.36)"></path><path class="cls-24" d="M304.87,199.07v-1.18c0-2.45-.78-5.35-3.8-5.35-3.59,0-4,4.41-4,5.71v.82ZM297,201.76c0,3.35,0,8.41,4.21,8.41,3.26,0,3.71-3.43,3.71-5.06h3.43c0,2.33-1.39,7.76-7.35,7.76-5.34,0-7.59-3.72-7.59-11.23,0-5.47,1.06-11.8,7.8-11.8s7.3,5.84,7.3,10.54v1.38Z" transform="translate(-27 -24.36)"></path><path class="cls-24" d="M312.21,190.42h3.27V193h.08a5.86,5.86,0,0,1,5.31-3.15c5.75,0,5.75,4.37,5.75,6.94v15.51h-3.43v-15.1c0-1.67-.12-4.41-3.22-4.41a4.22,4.22,0,0,0-4.33,4.41v15.1h-3.43Z" transform="translate(-27 -24.36)"></path><path class="cls-24" d="M332.13,184.05h3.43v6.37h3.8v2.69h-3.8v14c0,1.76.45,2.45,2.25,2.45a10.85,10.85,0,0,0,1.51-.12v2.81a13.69,13.69,0,0,1-2.78.25c-3.55,0-4.41-1.47-4.41-4.33v-15.1H329v-2.69h3.18Z" transform="translate(-27 -24.36)"></path></g><path class="cls-24" d="M351.68,190.42h3.43v21.87h-3.43Zm0-7.27h3.43v3.92h-3.43Z" transform="translate(-27 -24.36)"></path><g class="cls-2"><path class="cls-24" d="M359.8,190.42h3.27V193h.08a5.85,5.85,0,0,1,5.31-3.15c5.75,0,5.75,4.37,5.75,6.94v15.51h-3.43v-15.1c0-1.67-.12-4.41-3.22-4.41a4.22,4.22,0,0,0-4.33,4.41v15.1H359.8Z" transform="translate(-27 -24.36)"></path><path class="cls-24" d="M392.21,196.37h3.55c2.12,0,6,0,6-5.63,0-2.86-1.92-4.65-5.26-4.65h-4.29Zm-3.59-13.22h9.43c4.57,0,7.47,2.69,7.47,7.31,0,3.18-1.11,6.53-4.49,7.34v.09c2.53.28,4,2.36,4.12,4.85l.24,5c.17,3.23.7,4,1.56,4.57h-4.33c-.61-.61-.9-2.77-1-4.2l-.25-4.53c-.28-4-2.49-4.25-4.32-4.25h-4.86v13h-3.59Z" transform="translate(-27 -24.36)"></path><path class="cls-24" d="M424.09,212.29h-3.27v-2.57h-.08a5.86,5.86,0,0,1-5.31,3.15c-5.75,0-5.75-4.37-5.75-6.94V190.42h3.43v15.1c0,1.67.12,4.41,3.22,4.41a4.22,4.22,0,0,0,4.33-4.41v-15.1h3.43Z" transform="translate(-27 -24.36)"></path><path class="cls-24" d="M428.57,190.42H432v3.26h.08c1-2.08,2.29-3.84,4.74-3.84a3.55,3.55,0,0,1,1.51.25v3.35a9.32,9.32,0,0,0-1.84-.17,4.86,4.86,0,0,0-4.49,5.19v13.83h-3.43Z" transform="translate(-27 -24.36)"></path><path class="cls-24" d="M450.69,200.38c-1.26,1.34-4.28,1.63-5.83,2.57-1.1.69-1.68,1.55-1.68,3.47,0,2.2.78,3.75,3.11,3.75a4.45,4.45,0,0,0,4.4-4.16ZM440.12,197c0-5,2.13-7.19,7.35-7.19,6.65,0,6.65,4,6.65,6.29v12.21c0,.89,0,1.75,1.07,1.75a1.24,1.24,0,0,0,.81-.2v2.45a12.6,12.6,0,0,1-2,.2c-1.3,0-2.94,0-3.1-2.82h-.08a6.21,6.21,0,0,1-5.27,3.15c-4.08,0-6-2.45-6-6.37,0-3.06,1.31-5.19,4.12-6l4.62-1.39c2.49-.78,2.49-1.47,2.49-3.31,0-2-1.23-3.22-3.51-3.22-3.76,0-3.76,3.51-3.76,4.28V197Z" transform="translate(-27 -24.36)"></path></g><rect class="cls-24" x="431.98" y="158.79" width="3.43" height="29.15"></rect><g class="cls-2"><path class="cls-24" d="M486.94,200.38c-1.27,1.34-4.29,1.63-5.84,2.57-1.1.69-1.67,1.55-1.67,3.47,0,2.2.77,3.75,3.1,3.75a4.46,4.46,0,0,0,4.41-4.16ZM476.36,197c0-5,2.13-7.19,7.35-7.19,6.66,0,6.66,4,6.66,6.29v12.21c0,.89,0,1.75,1.06,1.75a1.22,1.22,0,0,0,.81-.2v2.45a12.6,12.6,0,0,1-2,.2c-1.3,0-2.94,0-3.1-2.82h-.08a6.21,6.21,0,0,1-5.27,3.15c-4.08,0-6-2.45-6-6.37,0-3.06,1.31-5.19,4.13-6l4.61-1.39c2.49-.78,2.49-1.47,2.49-3.31,0-2-1.23-3.22-3.51-3.22-3.76,0-3.76,3.51-3.76,4.28V197Z" transform="translate(-27 -24.36)"></path><path class="cls-24" d="M495,190.42h3.26V193h.08a5.86,5.86,0,0,1,5.31-3.15c5.75,0,5.75,4.37,5.75,6.94v15.51H506v-15.1c0-1.67-.13-4.41-3.23-4.41a4.22,4.22,0,0,0-4.33,4.41v15.1H495Z" transform="translate(-27 -24.36)"></path><path class="cls-24" d="M520.69,209.93c3.79,0,4.41-3.6,4.41-8.58,0-4.24-.74-8.57-4.41-8.57-3.19,0-4,3.35-4,8.57s.81,8.58,4,8.58m7.63,2.36h-3.26V209.6H525a5,5,0,0,1-4.74,3.27c-5.18,0-7.14-4.62-7.14-11.52,0-4.57.73-11.51,6.89-11.51a5.32,5.32,0,0,1,4.82,3.06h.08v-9.75h3.43Z" transform="translate(-27 -24.36)"></path><path class="cls-24" d="M33.71,245.35h3.55c2.12,0,6,0,6-5.63,0-2.86-1.92-4.65-5.27-4.65H33.71Zm-3.6-13.22h9.43c4.58,0,7.47,2.69,7.47,7.3,0,3.19-1.1,6.53-4.49,7.35v.08c2.54.29,4,2.37,4.13,4.86l.24,5c.17,3.22.7,4,1.55,4.57H44.12c-.62-.61-.9-2.77-1-4.2l-.25-4.53c-.28-4-2.49-4.25-4.33-4.25H33.71v13h-3.6Z" transform="translate(-27 -24.36)"></path><path class="cls-24" d="M62.2,248.05v-1.19c0-2.45-.78-5.35-3.8-5.35-3.59,0-4,4.41-4,5.72v.82Zm-7.92,2.69c0,3.35,0,8.41,4.2,8.41,3.27,0,3.72-3.43,3.72-5.06h3.42c0,2.32-1.38,7.75-7.34,7.75-5.35,0-7.6-3.71-7.6-11.22,0-5.47,1.07-11.8,7.8-11.8s7.31,5.84,7.31,10.53v1.39Z" transform="translate(-27 -24.36)"></path><path class="cls-24" d="M70.11,239.39h3.27V242h.08a5.84,5.84,0,0,1,5.31-3.14c2.53,0,4,1,4.73,3.47a6.08,6.08,0,0,1,5.19-3.47c5.75,0,5.75,4.37,5.75,6.94v15.51H91v-15.1c0-1.68-.12-4.41-2.94-4.41A4,4,0,0,0,84,246.17v15.1H80.56v-15.1c0-1.68-.12-4.41-2.94-4.41a4,4,0,0,0-4.08,4.41v15.1H70.11Z" transform="translate(-27 -24.36)"></path><path class="cls-24" d="M110.6,250.33c0-4.73-.69-8.82-4.37-8.82-3.47,0-4.2,4.09-4.2,8.82s.69,8.82,4.2,8.82,4.37-4.08,4.37-8.82m-4.29-11.51c6.33,0,7.88,5.35,7.88,11.51s-1.59,11.51-7.88,11.51-7.87-5.34-7.87-11.51,1.59-11.51,7.87-11.51" transform="translate(-27 -24.36)"></path><path class="cls-24" d="M118.88,233h3.43v6.37h3.8v2.7h-3.8v14c0,1.75.45,2.45,2.25,2.45a10.85,10.85,0,0,0,1.51-.12v2.81a14.49,14.49,0,0,1-2.78.25c-3.55,0-4.41-1.47-4.41-4.33v-15.1H115.7v-2.7h3.18Z" transform="translate(-27 -24.36)"></path><path class="cls-24" d="M139.45,248.05v-1.19c0-2.45-.77-5.35-3.79-5.35-3.59,0-4,4.41-4,5.72v.82Zm-7.91,2.69c0,3.35,0,8.41,4.2,8.41,3.27,0,3.71-3.43,3.71-5.06h3.43c0,2.32-1.38,7.75-7.34,7.75-5.35,0-7.6-3.71-7.6-11.22,0-5.47,1.06-11.8,7.8-11.8s7.31,5.84,7.31,10.53v1.39Z" transform="translate(-27 -24.36)"></path></g><rect class="cls-24" x="130.2" y="207.77" width="3.59" height="29.15"></rect><g class="cls-2"><path class="cls-24" d="M165.61,239.39h3.27V242H169a5.84,5.84,0,0,1,5.31-3.14c5.75,0,5.75,4.37,5.75,6.94v15.51h-3.43v-15.1c0-1.68-.12-4.41-3.22-4.41a4.22,4.22,0,0,0-4.33,4.41v15.1h-3.43Z" transform="translate(-27 -24.36)"></path><path class="cls-24" d="M191.53,258.9c3.8,0,4.41-3.59,4.41-8.57,0-4.24-.74-8.57-4.41-8.57-3.18,0-4,3.35-4,8.57s.82,8.57,4,8.57m7.63,2.37H195.9v-2.69h-.08a5,5,0,0,1-4.74,3.26c-5.18,0-7.14-4.61-7.14-11.51,0-4.57.73-11.51,6.9-11.51a5.29,5.29,0,0,1,4.81,3.06h.09v-9.75h3.42Z" transform="translate(-27 -24.36)"></path></g><path class="cls-24" d="M204.1,239.39h3.43v21.88H204.1Zm0-7.26h3.43V236H204.1Z" transform="translate(-27 -24.36)"></path><g class="cls-2"><path class="cls-24" d="M215.24,250.33c0,3.55.53,8,4,8,3.72,0,4.45-3.51,4.45-8,0-4.24-.73-8.57-4.41-8.57-3.18,0-4,3.35-4,8.57m11.64,9.55c0,6.54-3,8.9-7.43,8.9-1.35,0-6.62,0-7.19-5.47h3.43c.16,2,1.72,2.78,3.51,2.78,4.41,0,4.25-3.39,4.25-4.9v-2.86h-.08a5.2,5.2,0,0,1-4.94,2.94c-6.37,0-6.78-8-6.78-10.94,0-5.92,1.59-11.51,7.14-11.51a4.92,4.92,0,0,1,4.74,3.35h.08v-2.78h3.27Z" transform="translate(-27 -24.36)"></path><path class="cls-24" d="M242.39,248.05v-1.19c0-2.45-.78-5.35-3.8-5.35-3.59,0-4,4.41-4,5.72v.82Zm-7.92,2.69c0,3.35,0,8.41,4.2,8.41,3.27,0,3.72-3.43,3.72-5.06h3.42c0,2.32-1.38,7.75-7.34,7.75-5.35,0-7.6-3.71-7.6-11.22,0-5.47,1.07-11.8,7.8-11.8s7.31,5.84,7.31,10.53v1.39Z" transform="translate(-27 -24.36)"></path><path class="cls-24" d="M250,239.39h3.27V242h.08a5.85,5.85,0,0,1,5.31-3.14c5.75,0,5.75,4.37,5.75,6.94v15.51H261v-15.1c0-1.68-.13-4.41-3.23-4.41a4.22,4.22,0,0,0-4.33,4.41v15.1H250Z" transform="translate(-27 -24.36)"></path><path class="cls-24" d="M280.18,250.33c0-4.73-.7-8.82-4.37-8.82-3.47,0-4.2,4.09-4.2,8.82s.69,8.82,4.2,8.82,4.37-4.08,4.37-8.82m-4.29-11.51c6.33,0,7.88,5.35,7.88,11.51s-1.59,11.51-7.88,11.51S268,256.5,268,250.33s1.6-11.51,7.88-11.51" transform="translate(-27 -24.36)"></path><path class="cls-24" d="M301.85,261.27h-3.27V258.7h-.08a5.83,5.83,0,0,1-5.3,3.14c-5.76,0-5.76-4.37-5.76-6.94V239.39h3.43v15.1c0,1.68.12,4.41,3.22,4.41a4.22,4.22,0,0,0,4.33-4.41v-15.1h3.43Z" transform="translate(-27 -24.36)"></path><path class="cls-24" d="M316,245.8c0-2.78-.73-4.28-3.22-4.28-1.11,0-3.56.28-3.56,3.34,0,2.57,2.7,3.06,5.39,4s5.35,1.84,5.35,6.17c0,4.61-3,6.85-7.06,6.85-7.43,0-7.51-5.51-7.51-7.75h3.43c0,2.65.73,5.06,4.08,5.06a3.43,3.43,0,0,0,3.63-3.63c0-2.94-2.69-3.55-5.35-4.45s-5.38-1.68-5.38-6.21c0-4.08,3.18-6,7-6,6.36,0,6.61,4.41,6.65,7Z" transform="translate(-27 -24.36)"></path><path class="cls-24" d="M351.4,251.27c-.33,5.51-2.49,10.57-8.86,10.57-8.29,0-9.39-7.79-9.39-15.14s1.35-15.15,9.39-15.15c6,0,8.45,3.35,8.61,9.07H347.4c-.08-3.31-1.14-6.13-4.86-6.13-5,0-5.63,5.47-5.63,12.21s.65,12.2,5.63,12.2c4.37,0,5-4.08,5.1-7.63Z" transform="translate(-27 -24.36)"></path><path class="cls-24" d="M365.93,250.33c0-4.73-.7-8.82-4.37-8.82-3.47,0-4.21,4.09-4.21,8.82s.7,8.82,4.21,8.82,4.37-4.08,4.37-8.82m-4.29-11.51c6.33,0,7.88,5.35,7.88,11.51s-1.59,11.51-7.88,11.51-7.88-5.34-7.88-11.51,1.59-11.51,7.88-11.51" transform="translate(-27 -24.36)"></path><path class="cls-24" d="M373.52,239.39h3.26V242h.08a5.85,5.85,0,0,1,5.31-3.14c2.53,0,4,1,4.74,3.47a6,6,0,0,1,5.18-3.47c5.75,0,5.75,4.37,5.75,6.94v15.51h-3.42v-15.1c0-1.68-.13-4.41-2.94-4.41a4,4,0,0,0-4.09,4.41v15.1H384v-15.1c0-1.68-.13-4.41-2.94-4.41a4,4,0,0,0-4.09,4.41v15.1h-3.42Z" transform="translate(-27 -24.36)"></path><path class="cls-24" d="M403.23,239.39h3.26V242h.09a5.83,5.83,0,0,1,5.3-3.14c2.53,0,4,1,4.74,3.47a6.07,6.07,0,0,1,5.18-3.47c5.76,0,5.76,4.37,5.76,6.94v15.51h-3.43v-15.1c0-1.68-.12-4.41-2.94-4.41a4,4,0,0,0-4.08,4.41v15.1h-3.43v-15.1c0-1.68-.12-4.41-2.94-4.41a4,4,0,0,0-4.08,4.41v15.1h-3.43Z" transform="translate(-27 -24.36)"></path><path class="cls-24" d="M447,261.27h-3.26V258.7h-.08a5.85,5.85,0,0,1-5.31,3.14c-5.76,0-5.76-4.37-5.76-6.94V239.39H436v15.1c0,1.68.12,4.41,3.23,4.41a4.22,4.22,0,0,0,4.32-4.41v-15.1H447Z" transform="translate(-27 -24.36)"></path><path class="cls-24" d="M451.75,239.39H455V242h.08a5.85,5.85,0,0,1,5.31-3.14c5.75,0,5.75,4.37,5.75,6.94v15.51h-3.42v-15.1c0-1.68-.13-4.41-3.23-4.41a4.22,4.22,0,0,0-4.33,4.41v15.1h-3.43Z" transform="translate(-27 -24.36)"></path></g><path class="cls-24" d="M471.06,239.39h3.43v21.88h-3.43Zm0-7.26h3.43V236h-3.43Z" transform="translate(-27 -24.36)"></path><g class="cls-2"><path class="cls-24" d="M480.45,233h3.42v6.37h3.8v2.7h-3.8v14c0,1.75.45,2.45,2.25,2.45a10.85,10.85,0,0,0,1.51-.12v2.81a14.45,14.45,0,0,1-2.77.25c-3.56,0-4.41-1.47-4.41-4.33v-15.1h-3.19v-2.7h3.19Z" transform="translate(-27 -24.36)"></path></g><path class="cls-24" d="M490.45,239.39h3.42v21.88h-3.42Zm0-7.26h3.42V236h-3.42Z" transform="translate(-27 -24.36)"></path><g class="cls-2"><path class="cls-24" d="M509.55,248.05v-1.19c0-2.45-.78-5.35-3.8-5.35-3.59,0-4,4.41-4,5.72v.82Zm-7.92,2.69c0,3.35,0,8.41,4.2,8.41,3.27,0,3.72-3.43,3.72-5.06H513c0,2.32-1.39,7.75-7.35,7.75-5.35,0-7.59-3.71-7.59-11.22,0-5.47,1.06-11.8,7.79-11.8s7.31,5.84,7.31,10.53v1.39Z" transform="translate(-27 -24.36)"></path><path class="cls-24" d="M526.53,245.8c0-2.78-.74-4.28-3.23-4.28-1.1,0-3.55.28-3.55,3.34,0,2.57,2.69,3.06,5.39,4s5.35,1.84,5.35,6.17c0,4.61-3,6.85-7.07,6.85-7.43,0-7.51-5.51-7.51-7.75h3.43c0,2.65.74,5.06,4.08,5.06a3.43,3.43,0,0,0,3.64-3.63c0-2.94-2.7-3.55-5.35-4.45s-5.39-1.68-5.39-6.21c0-4.08,3.18-6,7-6,6.37,0,6.61,4.41,6.66,7Z" transform="translate(-27 -24.36)"></path><path class="cls-24" d="M161.8,106.86c0,.54.08,1.07.13,1.8.55-1.06.47-1.62-.13-1.8M115.45,93.07l.2.29c.33-.06.75,0,.74-.58a2.26,2.26,0,0,0-.17-.56l-.77.85m.63,17.49-1.43-.45-.09.23a3.59,3.59,0,0,1,.66.39,4.09,4.09,0,0,1,.51.7c.12-.29.23-.56.35-.87m-3.86-11.22a1.4,1.4,0,0,0,1.69,1l.11-.26-1.8-.72m6.1,13.38-2.25-1.46a2.16,2.16,0,0,0,2.25,1.46m.84-1.22c-.35.83.26,1,.76,1.21.08,0,.27-.23.42-.36-.36-.33-.41-1.1-1.18-.85m15.12-5c.07.38.08.84.16.85.65.12.34.69.54,1s.32.43.48.64c0-1.36-.37-2.18-1.18-2.49M116,101l-3.16-.52a5.79,5.79,0,0,0,1.34,1.16.55.55,0,0,0,.4,0c.46-.19.91-.41,1.42-.64m22.84,10.39s-.15.08-.13.18a19.2,19.2,0,0,0,.38,2c0,.08.27.18.38.15a3.57,3.57,0,0,0,.84-.39,1.3,1.3,0,0,0-.21-.48c-.39-.47-.8-.91-1.26-1.44m19.57-28.94-.11.13-2-1.7c.06,1.66,1.51,1.84,2.22,2.75l-.12-1.18m-36.11,27.39c-.26-.28-.61-.69-1-1.07a4.26,4.26,0,0,0-.65-.42c0,.32-.16.85,0,.93a3.54,3.54,0,0,1,1.35,1.23c.17.3.72.38,1.18.59-.26-.37-.5-.73-.86-1.26m19.87-.84.19.08a3.9,3.9,0,0,0,.32-.69c.15-.6.06-1.39.42-1.76s-.06-.42,0-.61c-.22.1-.53.14-.66.32-.63.83-.07,1.78-.24,2.66m-17.72-3.3a6.62,6.62,0,0,1-1,.94c-.4.24-.28.64-.45.94a5.73,5.73,0,0,0,.82-.3,1.13,1.13,0,0,0,.38-.31c.43-.5.86-1,1.25-1.51.08-.12,0-.37-.06-.56s-.19-.09-.2-.07a3,3,0,0,1-.24.43,5.37,5.37,0,0,1-.51.44m22.71,10.81a4.86,4.86,0,0,0-.82.55c-.49.56-1,1.12-1.4,1.72a18.5,18.5,0,0,0-1.19,1.83c-.06.1.06.3.1.45A.63.63,0,0,0,144,121c.34-.38.6-.9,1-1.14,1-.56,1.24-1.61,1.87-2.41.12-.15.1-.42.19-.88m-20.49-7.75a3,3,0,0,0,1,.15,2.45,2.45,0,0,0,1.34-.56c.27-.33.19-.93.27-1.41l-.09,0,.57-1-.2-.15a3.34,3.34,0,0,1-.35.4c-.31.32-.57.79-.94.9a2.21,2.21,0,0,0-1.6,1.68m27.57-26.23a2,2,0,0,1,.59.23.4.4,0,0,1,0,.38,1,1,0,0,0,.05,1.53l.22-.29a3.42,3.42,0,0,0,.64.55,2.35,2.35,0,0,0,.71.12l1.15.19c-.78-1.42-1.4-2.83-3.4-2.71m-7-5.28L144,75.46a1.14,1.14,0,0,0-.42,0,1.23,1.23,0,0,0,0,.43,4.63,4.63,0,0,0,3.23,2.75c.14-.52.25-1,.35-1.33m-2.64,16.88c.65-.63,1.12-1.15,1.83-.35.29.32.74,0,.78-.51.09-1.09-.75-1.5-1.47-1.89a28.32,28.32,0,0,0-2.73-1.15c-.11.25-.22.47-.28.6.26.16.6.28.59.37-.09.91.71,1,1.16,1.27,0,.53.07,1,.12,1.66m-32.61,9.67a.78.78,0,0,0,0,.14,1.47,1.47,0,0,0-.48-.1,1.34,1.34,0,0,0-.42.23c.09.13.14.31.26.39a13.52,13.52,0,0,0,1.41.85c.8.38,1.91.39,1.88,1.68,0,0,.07.09.11.12l2.15,1.89-.84.2,1.42.84c0-.31-.12-.51,0-.61.51-.8,0-1.26-.59-1.63s-1.21-.67-1.82-1l0-.13.78.11-.83-.55.43-.17a24.77,24.77,0,0,1-2.22-2.12,1.49,1.49,0,0,0-1.7-.45l.51.31m36.67,15.34c.25.92.46,1.71.75,2.8a4.31,4.31,0,0,0-1.07,1,12.87,12.87,0,0,0-.74,2.29l1.82-.82s.24-.28.21-.32c-.73-.83.1-1.26.43-1.84s.59-1.27.94-1.88a7,7,0,0,1,.84-.91c-1.41.25-1-.81-1.29-1.39a3.44,3.44,0,0,1-.58.61,2.73,2.73,0,0,1-.72.2c.21-.74-.37-.1-.51-.27s-.34,0-.47-.06c-.56-.31-.59-.34-.86.07-.4.61-.7,1.28-1.12,1.87-.54.75-1.25,1.4-1.75,2.18a13.25,13.25,0,0,0-.9,2.13l-.69-1.21a18.84,18.84,0,0,0-1,1.75c-.31.68-.26.7-1,.81s-1.2.13-1.79.26a5.88,5.88,0,0,0-.95.38l.08.22a2.42,2.42,0,0,0,.47,0l3.53-.49a.86.86,0,0,1,.53,0c.17.08.28.27.41.41-.15.11-.3.29-.47.31a9.88,9.88,0,0,1-1.54.09c-1.08,0-2.2-.31-3.14.54l-.31.28a1.29,1.29,0,0,0,.46.09c1.18-.15,2.35-.37,3.54-.46.79-.07,1.6.05,2.4,0s.85-.69,1.13-1.18c0,0-.23-.25-.34-.24s-.28.17-.53.34c.21-.44.37-.75.6-1.22l-1,.66-.15-.14c1.07-1.15,1.37-2.81,2.58-3.82l-.53-.21.05-.17,1,.11v-.71a3.6,3.6,0,0,0,1.73-2.15m-10.28-10.73c.41-.58,1-1.35,1.64-2.28.14.8.24,1.36.35,1.91.17.91.38,1.8.48,2.71,0,.33-.35.71-.28,1a9.36,9.36,0,0,0,.71,1.71,4.78,4.78,0,0,0,.38.61l-.4.19,2.87.51c-.29-.61-.56-1.23-1-1.42a1.58,1.58,0,0,1-1-1.39,10.38,10.38,0,0,1-.09-1.76,2,2,0,0,1,.15-.52l-1-.14c.07-1,1-1.9.14-2.91l-.2.12-.24.1c-.18-1.23-.59-2.52,1.14-2.73a4.23,4.23,0,0,1-.13-1.23c.14-.76.42-1.49.61-2.23.61-2.36-.11-2.92-2.26-3,0,0-.1,0-.09,0,0-.16,0-.38-.12-.43a9.5,9.5,0,0,1-1.64-.77c-.59-.47-.71-.19-.92.46.89-.33,1,.29,1.14.81a13.16,13.16,0,0,1,.64,2A2.12,2.12,0,0,1,139,101c-.31.54-.87,1-1.16,1.51-.45.84-.64,1.83-1.15,2.62-.64,1-.09,2.09-.47,2.84l2.09.44m-5.57-28.24-1.23-1c-.34,1-.63,1.81-.93,2.66l.16,0-.61.76.17.19a2.38,2.38,0,0,0,.53-.4c.53-.71,1.37-1.17,1.62-2.09,0-.06.19-.08.29-.12a6.52,6.52,0,0,1-.35,1.24,18.48,18.48,0,0,0-1.65,4.51,1,1,0,0,0,.08.41l.24.06c.43-1.26.86-2.52,1.33-3.88l.91,1.32c.11-1.56.22-3,.32-4.33l-.27-.08c-.2.26-.41.51-.61.76M118.07,105.5l.39-.25-.08-.23.57-.11-.91-.7.45-.14-1.17-.45c0,.26,0,.43,0,.59l.08-.2-2-1.28-.24.32,1.22,1.08-.71.1,1.56.91-1-.09c1.17,1,2.2,2,3.24,2.91a2.29,2.29,0,0,0,.51.28c0-.29.21-.72.08-.86-.63-.67-1.34-1.26-2-1.88m-6.48-8a2.82,2.82,0,0,0,.61.18,3,3,0,0,0,.72-.09l-.28-.81c.39-.84-.83-.72-.93-1.27a6.86,6.86,0,0,1-.09-1.49,3.37,3.37,0,0,1,.52-1.46,5.52,5.52,0,0,1,1.49-1.48,5,5,0,0,1,1.67-.33l-.21-.41s0-.1.08-.13a4.77,4.77,0,0,0,1.3-.9,1.5,1.5,0,0,1,1.59-.84,7.66,7.66,0,0,0,1.6-.09c.28-.68.59-1.45.91-2.21l-.6-.33L122,84.59l-.67-.43a.52.52,0,0,0,0-.11l.93.22c.13-.21.27-.45.47-.8-.14-.26-.35-.66-.57-1l-.16.07a5.42,5.42,0,0,0,.22.56c.23.48,0,.64-.44.7a11,11,0,0,0-1.18.28,6.34,6.34,0,0,0-.12-.79c-.15-.61-.34-1.21-.48-1.82a3.06,3.06,0,0,1-.14-1.19c.34-2,.72-3.89,1.16-5.81.09-.38.52-.67.87-1,.13-1,0-2,.93-2.83a1.74,1.74,0,0,1,.41-.36,14.72,14.72,0,0,1,1.8-.62c.19,0,.47.13.66.27.35.28.33.29.55-.21,0-.13.22-.21.35-.28.5-.29,1-.58,1.49-.85a.62.62,0,0,1,1,.57l3.33-1a7,7,0,0,1,3.59.24,9.93,9.93,0,0,1,2,.73,4.31,4.31,0,0,0,2.62.67c.18,0,.39.15.46.18a2.58,2.58,0,0,1,.88-.35c.67,0,1.34.18,2,.23a11.71,11.71,0,0,0,1.32-.09c0,.1,0,.19,0,.29l-.78.17c1,.64,1.84,1.18,2.68,1.69s1.47.82,2.18,1.25c.23.14.52.35.58.58.32,1.2,1.29,1.33,2.28,1.52a4.59,4.59,0,0,1,1.14.55,14.44,14.44,0,0,0,1.73.83c.12,0,.41-.4.63-.61.5.53.29,1.6-.62,2.25.41.44.81.9,1.24,1.32.13.12.38.12.58.16a14.09,14.09,0,0,1,2.18.49c.3.12.43.67.65,1a7.37,7.37,0,0,0,.59.79c.39.44,1.19.9,1.15,1.29-.1,1,.66,1.28,1,1.87a12.71,12.71,0,0,0,1.15,1.33c.54-.15,1-.3.74.66-.09.46.51,1.08.8,1.62a.68.68,0,0,0,.37.36l-.78-2.57.21-.09.92,1.06-.23,0c0,.23-.08.51,0,.69.18.33.5.58.7.9s.56.86.27,1.43c-.08.15,0,.39,0,.6h-.37c.09.31.18.62.26.93l-.26.09a7.23,7.23,0,0,0-.57-1.43c-.26-.37-.51-1-1.31-.61l.44.41c-.09.24-.19.48-.36.93l.69-.46s.08.08.07.12c0,.33-.24.59.18.94s.34,1.64,0,2.17c0,.06-.19,0-.38.07a2.85,2.85,0,0,1,.29,3.68,13.09,13.09,0,0,1-2.47,2.21l.65.69-.14,0,.63,2.34c-1.38.38-.73,1.63-1.27,2.33l.18.15.77-.51.17.13c-.3.43-.62.84-.89,1.28a1.9,1.9,0,0,0-.33.87,7.77,7.77,0,0,1-1.16,3.48c-.15-.33-.24-.53-.39-.84-.64.71-1.13,1.58-2.4,1.32l.78,2.24c.15-.3.29-.58.44-.86a1.87,1.87,0,0,1,.11,2.7c-.08.07,0,.24-.1.36-.27.58-.54,1.16-.81,1.72a12.53,12.53,0,0,1-.92,1.54c-.44.54-1.05,1-1.47,1.5a7.67,7.67,0,0,0-1.19,2c-.16.46-.31.61-.76.63a3.64,3.64,0,0,0-.78.19l.38.46c-.15.5-.16,1-.41,1.24s-.73.29-1.13.43c.69.89-.57,1.06-.78,1.75.06.08.15.23.24.37a2.09,2.09,0,0,0-.72,2.18c-.38.39-.72.76-1.08,1.11a1.31,1.31,0,0,1-.4.26c-.72.29-1.46.54-2.15.88a.87.87,0,0,0-.4.66c.12,1.41-1.14,2.34-2.72,1.59-.17-.08-.38-.07-.53-.17s-.5-.3-.56-.51a.87.87,0,0,0-1.37-.55c-.43.24-1.17.37-1.26.69-.24.86-1.16,1-1.54,1.71s-1.34.38-2,.22a5.69,5.69,0,0,1-3.17-2.38c-.62-.83-1.34-1.58-2-2.41a6.19,6.19,0,0,1-.54-1.23c-.17-.39-.38-.76-.53-1.16-.08-.19-.11-.57,0-.6.71-.34.19-.68.09-1a2.22,2.22,0,0,0-1.65,1.89,1.29,1.29,0,0,1-1.64,1,10.52,10.52,0,0,1-1.91-.69l.54-1-.61,0c0-.08,0-.16-.08-.24l1.85-.7-.51-.77-2.44.7,1.45.19a6.78,6.78,0,0,1-1,.88c-2.39,1.26-4.87,1.85-7.5.79a4.26,4.26,0,0,1-1.42-.91c-.25-.26-.28-.74-.41-1.11l.19-.15c-1.42-.59-2.89-1.09-4.24-1.8a19.33,19.33,0,0,1-2.83-2c-.72-.57-1.38-1.2-2.24-2h.67l.2-.17a39.89,39.89,0,0,1-6-9.21l.4,0c-1.22-1.44-1.12-3.16-1.35-4.65a4.36,4.36,0,0,0-.37-.6,2.64,2.64,0,0,1-.72-2.7c0-.1-.22-.28-.34-.43-.43-.51-.35-.74.36-.88-.32-.63-1.22-.85-1.12-1.77s-.18-2.11.61-3c.9.39,1.1.32,1.28-.3l1.94-.89,1,1.28c0-.59,0-1.06.07-1.47.61.28.74.7.41,2.13L106,98c-.14,1,.15,1.25,1,.76a5.77,5.77,0,0,1,1.37-.36l.53.64c0-.37-.06-.52-.07-.68a5,5,0,0,1-.1-1.52c.25-1.13.94-1.31,1.86-.58.19.15.37.32.55.49l-.68.5a13.47,13.47,0,0,0-1.17,1,.5.5,0,0,0,0,.5,1.29,1.29,0,0,0,1.5-.11c.17-1,.56-.58,1-.27l.13-.11c-.09-.21-.17-.41-.25-.62" transform="translate(-27 -24.36)"></path><path class="cls-24" d="M132.4,38.66l-.27.3-.79-.56-.13.2,1.28.9.32-.41-.41-.43m-9.52,23.27c.06-.22.11-.42.17-.63l-.68-.45c.09.53.16,1,.25,1.5l.9-.07c0-.07,0-.14,0-.21l-.63-.14m.77,1-1.06-.32-.07,1.26,1.13-.94m3.78-30.35.84,1.12.7-1.12Zm4.71,5.64,0-.15-2-.56v.71l.45-.47-.14.62,1.61-.15m-1.58,8.39c-.05-.74-.1-1.47-.15-2.3-.94.92-.27,1.59.15,2.3m.68-11.68c0-.43.12-.86,0-1a2.29,2.29,0,0,0-1.06-.48c-.15,0-.35.22-.37.23.54.48.95.83,1.46,1.27m-2,1.31-.86,1.71,1.09.74c-.21-.5-.34-.79-.54-1.28l.75.62.26-.16c-.2-.46-.4-.92-.7-1.63m-5.13,14.14c0-.67.08-1.38.12-2.09l-.23-.11a6.62,6.62,0,0,0-.67,1.62c0,.35.31.76.44,1h1.42a1.16,1.16,0,0,1,0-.18l-1.12-.28m7.64-15.4,1.15,1.69c.18-.88.36-1.71.56-2.67l-1.26.37-.13-.23c-.13.32-.25.65-.32.84m-7.29,12.43-.14-.18.75-.57-.74-.4.59-.72c0-.09-.11-.31-.21-.56.79.22.24-.42.44-.64l-.23-.07-.14.53c-.52-.36-.7-.15-.75.43,0,.36-.28.72-.29,1.08,0,.54-.44,1.18.22,1.59L125,47.4a.78.78,0,0,0,0-.14l-.53.1M128,41.69l1.35-.16c.87,1.19,1.74,0,2.58.22l-.57-.63h.85L131,39.87c0,.57-.08.89-.13,1.41-.44-.62-.8-1.11-1.22-1.69l-.78.88,1.11.36c-.46.06-.91-.07-1.34,0s-.84.26-.7.9m.46,3.92a4.09,4.09,0,0,0,.53.6c.05,0,.34-.09.36-.18a6,6,0,0,0,.41-2.22c-.09-.54-.78-1-1.32-1.59L127.75,44l-.12-.45-.66.36a4.37,4.37,0,0,1,1,1.94l.43-.27m-.56-8.74c-.09-1.65-.09-1.65-1.27-2.06l-.52.5c-.6.57-.58,1,0,1.65a2.12,2.12,0,0,1,.24.84l-.22.05c0-.2-.09-.39-.15-.66l-1.14,2.27,1.34-.31c0,1.49,1,.92,1.75.77,0,.23-.08.43-.11.59l-1.05-.06c.11.28.28.47.4.44a3.07,3.07,0,0,0,2-1c.55-.74.29-1-.33-1.22-.29-.08-.68.21-1,.33-1-.09-1.16-.8-.45-1.68L128,38c.2-.56.37-1,.53-1.49l-.23-.09-.37.41M128,55.79l.14,0c.09.23.18.46.28.69.05,0,.13,0,.15-.08A8.92,8.92,0,0,0,129.66,53a.61.61,0,0,0-.37-.45c-.77-.13-1.56-.2-2.35-.29l0,.19.7.36c-.38,0-.67.08-.86,0-.64-.34-1.17.08-1.14.5.06.82-.63,1.09-.91,1.7h.79l-.2.1a8.6,8.6,0,0,0,.68,1.23c.07.11.43.06.63,0s.08-.3.12-.47c.17.86.69.84,1.27.83,0-.32,0-.6,0-.87m1.09,9.42c-.46,1.28-1.91,1-2.6,1.85l-.41-.69c-.21.26-.38.66-.63.72s-.7-.14-1.07-.23c0,0,0,.11,0,.22-.27-.24-.88-.3-.42-.94.1-.14-.22-.58-.39-1-.15.61-.28,1.17-.41,1.75-.4,0-1-.76-1-1.41,0-.88,0-1.77,0-2.65,0-.37-.31-.75-.26-1.09a7.1,7.1,0,0,1,.54-1.44l-1,.73c.11-1.16.21-2.18.31-3.19.08-.82.19-1.63.23-2.45a1.47,1.47,0,0,1,.77-1.4.88.88,0,0,0,.36-1.26,2.33,2.33,0,0,1-.12-.82l-.65.11a4.34,4.34,0,0,1-.33-1.39c.23-2.21.48-4.42.85-6.62A2.4,2.4,0,0,1,124,42.7c1-.56,1-.5.43-1.47,0,0,0-.15-.16-.07-.26-.25-.61-.45-.75-.75a5,5,0,0,1-.1-3.34,16.41,16.41,0,0,1,2.78-5.24,9.79,9.79,0,0,1,1.39-2.13A8.36,8.36,0,0,1,130,28.64c.2-.08.47,0,.64-.09,1.77-1.07,3.23.13,4.77.64a1,1,0,0,1,.52.69,19.79,19.79,0,0,1,.16,3.26c0,.41-.58.78-.89,1.18l-.2-.13c.06.17.07.44.18.5,1.65.79.78,2.21.71,3.29a3.94,3.94,0,0,1-1.63,3.13c-.27.18-.33.7-.43,1.08a6.94,6.94,0,0,0-.32,1.73c0,1.31.16,2.63.2,3.94a11.4,11.4,0,0,1-.14,1.84c0,.12-.17.26-.3.33a1.92,1.92,0,0,0-1,1.85,29.93,29.93,0,0,1,.3,3.65,7.65,7.65,0,0,0,.08,1.85,3,3,0,0,1-.33,1.38c-.26.76-.82,1.46-.33,2.34.06.1-.11.34-.2.51s-.22.17-.24.27a3.78,3.78,0,0,1-1.07,2.3,2,2,0,0,0-.27.66c-.28.8-.34.82-1.06.37" transform="translate(-27 -24.36)"></path><path class="cls-24" d="M158.41,29.62l-1.69.72.57.28c-.22.23-.37.41-.58.65l1.21.29c-.09-.37-.17-.73-.24-1l.73-.93m.76-2.53-.7.15c-.09.75-.18,1.38-.26,2l.29,0c0-.28.06-.56.09-.82l.58.27Zm-9.34,16.74.48-1.31-.11,0-.66.84-.58-.5c0-.31.09-.61.13-.92a2.5,2.5,0,0,0-.49.77c-.22.57.5,1.82,1,1.67s.55.51,1,.55c.06,0,.1.23.15.35l.25-.09-.39-1.36-.77,0m.35,13.78,1.14-1.36.2.08c-.28.73-.55,1.45-.84,2.17a3.33,3.33,0,0,0-.4,1,1.47,1.47,0,0,1-1.46,1.59c-.21,2.24-.73,2.82-1.83,2.17a4.34,4.34,0,0,1-.68.42c-.36.13-.77.18-1.13.33a3.11,3.11,0,0,1-3.25-1.46.34.34,0,0,1,0-.34.52.52,0,0,1,.39-.14,3.24,3.24,0,0,1,.64.25,7.11,7.11,0,0,1-1.28-1.79,8.45,8.45,0,0,1-.09-2.26,1.8,1.8,0,0,0,0-.81c-.63-1-.09-1.72.6-2.43a2.9,2.9,0,0,0,.44-.9c.15-.33.28-.68.47-1.16l-.42-.49.07-.11.94.41L143.3,52c0-.05.06-.13.08-.13.59.08.91-.12.91-.75,0-.19,0-.52.07-.54.84-.23,1-1,1.29-1.61.14-.28.6-.41.7-.47-.25-.35-.57-.75-.86-1.19a2.06,2.06,0,0,1-.16-.58l.61-.15c-.56-1.17,0-2.34.11-3.53a.22.22,0,0,1,.1-.15c.37-.27.36-.26.17-.61-.06-.11,0-.26.09-.49l.88,1-.13.1c.34.07.91.29,1,.17a3.77,3.77,0,0,0,.36-1.23H147a6.34,6.34,0,0,1-.08-1.43,8.94,8.94,0,0,1,.52-2A2.18,2.18,0,0,1,149.17,37c.15,0,.3-.3.37-.48.23-.58.63-.5,1.07-.33a30.32,30.32,0,0,0,2.86,1.13c.27.08.69-.28,1.1-.47l-2-.32.8-1c0-.07-.06-.26-.1-.44L151.5,35l-.06.23,1.13.65v.19h-1.66c.34-.69.16-1.09-.54-1.36a1.17,1.17,0,0,1-.57-.93c.1-1.4.12-2.85,1.15-4,.09-.1.5.08.82.13l-.51-.71c.06-.57.08-1,.17-1.45s.29-1.54.43-1.53c1.16,0,1.55-1.2,2.45-1.41s2-.93,3,0a.47.47,0,0,0,.28.14,2,2,0,0,1,2.2,1.9c.08.54.82.81.56,1.51-.36,1-.08,2.09-.89,3-.33.37-.24,1.08-.46,1.59a19.09,19.09,0,0,0-.95,1.77,9.56,9.56,0,0,1-1.4,3.06,4.05,4.05,0,0,0-.32,1.4,13.56,13.56,0,0,0-.64,2.68,8.17,8.17,0,0,1-.84,2.94c-.39,1-.94,1.86-1.43,2.79-.12.24-.29.46-.4.7a1.81,1.81,0,0,1-1.66,1.31c.6,1.53.59,2.89-1,3.84,1.11.47,1.12.48.73,1.63-.28.82-.61,1.62-1,2.55" transform="translate(-27 -24.36)"></path><path class="cls-24" d="M167.36,44.08l-.1.23c.94.8,1.27.91,1.87.61-.61-.3-1.19-.57-1.77-.84m-.4,1.67c.73.21,1.43.37,2.11.61s.93.28,1.6-.27l-3.59-.85c-.06.23-.09.39-.12.51M166,51h-.18l.61-2.26-.78.5-.28-.31c-.12.37-.25.73-.37,1.1l.2.06.42-.69.22.11c-.18.36-.25.87-.54,1-.73.44-.34.73,0,1.08.13.13.23.29.37.41a1.75,1.75,0,0,0,.42.29s.21-.16.2-.21c-.22-.8.24-1.38.58-2a3.62,3.62,0,0,0,.22-.75l-.3-.11c-.28.58-.55,1.16-.82,1.74m-7,9.61,1.86-1.87c.11-.11.28-.17.39-.29s.39-.68.57-.67a4.76,4.76,0,0,1,1.4.37,5.23,5.23,0,0,1,.69.31l.11-.19c-.45-.35-.92-.68-1.35-1.06-.19-.17-.46-.55-.4-.63.51-.7,0-1.13-.35-1.62,0-.06,0-.16,0-.22,1.32-.25.22-1,.46-1.57l1.5-.17c0-.46.07-.82.11-1.24-.8-.86-.85-1.74-.15-2.09l.73.5a2,2,0,0,0,.07-2.1c-.31-.48-.72-1-.28-1.64l.46.29.94-2c.1-.52.25-1.23.39-1.94l-.29-.08c.6-.37,1.44-.54.83-1.61a6.94,6.94,0,0,1-.2-1.37.93.93,0,0,1,.37-.75c.16-.1.72-.26.63.4a1.19,1.19,0,0,0,.77.24,8.53,8.53,0,0,0,1.39-.74c-.36-.7-.75-.42-1.26,0l-.52-.48c-.34.47-.37.46-1-.32a9.53,9.53,0,0,1,.91-1.06c.21-.19.33-.55.81-.42.22.05.58-.35.84-.59,0,0-.11-.3-.18-.49l1-.16c-.23.49-.47.95-.66,1.42-.05.13,0,.32.06.48.14-.08.36-.14.41-.27a4.5,4.5,0,0,1,1.44-1.74,1.4,1.4,0,0,0,.25-1.65l-1.13,1.25c.06-.33.08-.43.1-.59l-1.48.25,1.76-1.28c.78,0,1.39,0,2,.11a3.1,3.1,0,0,1,2.42,1.32c.2.32.57.53.82.83s.6.63.63,1a10.52,10.52,0,0,1-1.27,6.3,23.29,23.29,0,0,0-1.34,3.36c-.29.78-.44,1.69-1.83.75.05.11.09.23.14.34a2.24,2.24,0,0,0,.31.43,1.33,1.33,0,0,1,.28,1.67c-1,2.34-1.9,4.7-2.79,7.08a3.26,3.26,0,0,1-1.46,1.78,1.62,1.62,0,0,0-.58.44,3.8,3.8,0,0,1-2.09,1.81c-.14.05-.19.34-.3.51s-.23.46-.42.57c-.76.47-.77.55-.19,1.07-.19.73-.33,1.41-.56,2.07a1.19,1.19,0,0,1-.54.55A1.69,1.69,0,0,0,163,66.82a5.47,5.47,0,0,1,0,1.07,2.4,2.4,0,0,1-2.48,1.66l-1.1.86-.24.54c-.24-.16-.5-.31-.73-.48a11.88,11.88,0,0,1-1.86-1.64l.65,0-.68-1c.72.26.91,1.3,1.75.72a15.93,15.93,0,0,1-1.59-1.85c-.62-1-.45-1.58.26-2,.08-.42.14-.76.23-1.27-.86-.79.47-1,.78-1.35a2.51,2.51,0,0,0,.56-1.13c0-.17.28-.29.43-.44.5.46.71,1.29,1.64,1.28-.06.22-.12.43-.21.77l.87-.65c.05.29.09.49.12.69.51,0,1.1,0,.75-.84-.11.2-.17.3-.28.48,0-.69,0-.69-.7-.79-.08,0-.13-.09-.21-.12l-2-.8" transform="translate(-27 -24.36)"></path><path class="cls-24" d="M97.31,84.66l-1.55,1,.12.19c.6-.14,1.35-.06,1.43-1.2M87.49,73.49a2.76,2.76,0,0,0,.08.27l.67-.15-.3.72.17.1L89,73.21a1.54,1.54,0,0,1,0-.17l-1.44.45m2,8.33-.31.24a11.17,11.17,0,0,0,.71,1.08,7.86,7.86,0,0,0,.85.78c.12.11.24.2.37.3,0-.21.15-.45.09-.62a5.54,5.54,0,0,0-.63-.87v.54l-1.08-1.45m3.49-6.72c.16.45.32.82.43,1.21.23.83.42,1.66.64,2.49A7.68,7.68,0,0,0,94.36,80a7.73,7.73,0,0,0,.6.93c.05-.3.12-.6.15-.91,0-.08-.1-.16-.13-.24-.2-.62-.58-1.24-.12-1.9a1.72,1.72,0,0,1,.22,0l-.2.48.46.2v1.28c.62-.4,1-.64,1-1.25L96,76c-.3.49-.83.51-1.27.05l.5-.18-.82-1.49-.24,1a2,2,0,0,1-1.23-1.81c-.72.11-1-.31-1-1.08l-.6.32c0-.17,0-.39,0-.39-.65,0-.46.78-1,.89,1.5.59,1.5.59,1.62,1.42l.39-.35.55.5-.53.6.19.16.4-.45m-4.25-2.66,1.78.23c-.09-.47-.18-1-.3-1.55H87.92c0-.27.09-.66.14-1.1l-.31,0c.14.43-1,.67,0,1.2l-1-1.14c.66-.14.42-1.49,1.53-1.53A11.74,11.74,0,0,0,90.55,68l.15.34-.93.82c0,.21.08.55.14.89,1.23-1.63.94.85,1.66.63l-.39.33.32.14-.39.66.2.18c1.45-.3,2-1.7,2.74-2.51H95.4a.4.4,0,0,1,.22,0,19.14,19.14,0,0,1,2.24,2c.23.27,0,.92.09,1.39.53-.07.79-.08.56.47a4.67,4.67,0,0,1-.24.9l-.1-.45h-.64c.43.49.09.78-.15,1.22s0,1,0,1.5l1.14.95c.23-1.39.47-2.79.71-4.19l.2,0c.24,1.4-.76,2.68-.22,4.14.17.46.28.72.67.84.1.73.2,1.45.33,2.32l.6-.64c0,.26,0,.49,0,.75l.35,0c-.07,1-.15,2.09-.2,3.14,0,.42.17.89,0,1.26a15.09,15.09,0,0,1-1,1.9,2.11,2.11,0,0,1-.54,2.53l1.45.38c-.15.35-.31.72-.46,1.09,0,.12,0,.25-.08.36s-.22.35-.33.53l-.2-.12c0,.25,0,.49-.08.92l-1.81-.88c0,.16,0,.4,0,.6l-1-.38.22-.56L97,91.38l-1.13.83,1.14.72c-1.49-.69-3.33-.66-4.4-2.22a12.1,12.1,0,0,0-1.4-1.37,8.44,8.44,0,0,1-.76-1c-1.59-2.46-1.86-5.39-2.81-8.07-.31-.86-.73-1.69-1-2.57a5.07,5.07,0,0,0-1-2.06A1,1,0,0,1,86,74.06c-.18-.3-.64-.7.12-.86l-.57-.39c.27-.08.26-.74.77-.4,0,0,.28-.25.26-.23h1.09a.77.77,0,0,1,0,.15l-.67.32,1.13.42.19-.44.36-.19" transform="translate(-27 -24.36)"></path><path class="cls-24" d="M174.21,77.57c.06-.47.11-.87.16-1.24l-1.17.42c-.06-.34-.11-.64-.19-1.08-.23.27-.45.4-.45.54,0,1.09,1,1,1.65,1.36m7-10.81,1.64,1.11c-.21.62-.4,1.12-.52,1.63,0,.07.36.22.65.39a3.28,3.28,0,0,1-.5.17c-.23,0-.47.07-.7.1.09.21.19.41.33.74-.44.37-1,.77-1.43,1.21s-.63.68-1,1-.68.47-.88.79a1,1,0,0,1-1.4.46c0,.19-.09.39-.16.68l-.38-.06c.06.79.06.79-1.2.58l.9,2.17L175,77.9c-.09.42-1,.9-.21,1.39v1.54c-.11.12-.3.28-.45.47a10.47,10.47,0,0,1-1.16,1.59,2.16,2.16,0,0,1-1.39.55c-.42,0-.83-.41-1.28-.66l-.43.28a3.16,3.16,0,0,0-.17-.52c-.11-.21-.26-.4-.41-.63a2.4,2.4,0,0,0,.55-.51c.27-.45.6-.17.64,0,.16.69.64.59,1.11.58a2.07,2.07,0,0,1,.44.17c-.16-.22-.22-.39-.32-.43-.88-.3-1.11-1.14-1.52-1.81a.67.67,0,0,1-.09-.47c.47-1.54.06-3.35,1.43-4.62.16-.16.13-.51.23-.76s.16-.31.27-.33a13.59,13.59,0,0,1,1.67-.3c.85-.09,1-.37.76-1.23a1.09,1.09,0,0,1,.1-.7,26.73,26.73,0,0,1,1.73-3.42,4.17,4.17,0,0,1,2.16-2c.28-.08.54-.69.58-1.08a11.92,11.92,0,0,1,3-6.38,18.7,18.7,0,0,1,2-1.79c.21.41.31.79.42.8.56,0,.25-.28.23-.56s.35-.45.58-.49a6,6,0,0,1,1.19,0,1.87,1.87,0,0,0,0,.25l-1.16.34c0,.22.07.45.09.58l2.43.46c-.26-.53-.47-1-.78-1.57.77.62,1.69.63,2.14,1.56s.94,1.81.52,2.88a6.42,6.42,0,0,1-.32.57,8.19,8.19,0,0,1-.14.91c-.74,0-1.06.77-1.72.85-.05,0-.15,0-.15,0-.21,1.07-1.61,1-2,1.94,0-.17-.07-.34-.1-.51l-.22-.08c-.16.41-.31.82-.47,1.24l-.64-.13.35.86-.78,1.2-2.44-1.47-.15.23" transform="translate(-27 -24.36)"></path><path class="cls-24" d="M100.9,93.56,101,95.4c-.66.76-1.29,1.47-2,2.27-.16-.44-.34-.89-.57-1.5l1,.42c-.27-.57-.47-1-.67-1.44l.19.07c.37-.82.75-1.63,1.23-2.69l.21,1.53.09,0c0-.18.08-.36.11-.54h.22" transform="translate(-27 -24.36)"></path><path class="cls-24" d="M75.33,121c-.41-.5-.8-1-1.31-1.56-.13,1.15.16,1.42,1.31,1.56m-16.28,8.8c0-.55,0-.9.07-1.42l-1.25.4.75.64.43.38M71.68,115c.11.41.09.92.33,1.09a13.28,13.28,0,0,0,1.88,1c.14-.59-1.16-1.87-2.21-2.05M53.25,120.9c.13-.29.73.65.91-.24a2.83,2.83,0,0,1,.46-.81C54.4,119,54.17,118,54,117c-.2.3-.13.64-.27.77-.64.61-.22,1.36-.34,2a9.07,9.07,0,0,0-.09,1.08m11.92-10.08a1.85,1.85,0,0,0,1.26,2c.5.14,1.5.13,1.43-1-.82-.5-1.53-1.37-2.69-1m3.55.68a1.46,1.46,0,0,0-.07,2.12c.26.24.42.61.7.82s.49,1,1.17.49c.32-.24.68-.45,1-.69l-2.85-2.74M51.57,128.91c.26-.38.43-.62.58-.86.42-.7.87-1.27,1.83-.85a.72.72,0,0,0,.67-.16,5.38,5.38,0,0,0,1-1.32c.38-.78.66-1.61,1-2.43l-.59-.53-1,.49c.24-1,.42-1.71.63-2.58-.63.33-1.42-.09-1.61.8-.94-.51-.85.67-1.37.85a4.45,4.45,0,0,0-.81.55L50.8,124l.14.13.66-.36c-.18,1.34-.34,2.57-.51,3.89l.59-.4c0,.54-.06,1-.11,1.69M64.08,110c.19-.65.86-.48,1.48-.52,1.12-.07,2.23-.3,3.34-.28,1.7,0,3.45-.07,5,.85a26.52,26.52,0,0,1,2.36,1.26,8.54,8.54,0,0,1,3.12,4.35,7.74,7.74,0,0,1,.11,3.29A5.77,5.77,0,0,1,77.74,122a16.2,16.2,0,0,1-5.26,3.7,7.91,7.91,0,0,1-1.65.32,11,11,0,0,0-5.15,2.73c-1.3,1.12-2.45,2.39-3.65,3.61a6.86,6.86,0,0,1-5,2.36,12.38,12.38,0,0,1-4.41-.53A5.13,5.13,0,0,1,49.2,130a12.49,12.49,0,0,1,0-3.23c.12-1.15.36-2.3.59-3.44a2.81,2.81,0,0,1,.38-1,12,12,0,0,0,1.46-4.71,26.89,26.89,0,0,0,0-3.7c0-2.21.21-4.43,1.9-6.14a4.18,4.18,0,0,1,3.78-1.08,9.3,9.3,0,0,1,4.09,1.79c.22.16.45.3.68.44L64.08,110" transform="translate(-27 -24.36)"></path><path class="cls-24" d="M31.79,118.31c.13.39.23.68.34,1,.69-.64.24-1.07-.1-1.42-.13-.13-.52,0-.79,0v.28l.55.13m12,5.21c.07-1.23-.9-1.39-1.58-2.08.05.37.07.56.1.74l-.91.2a.78.78,0,0,0,0,.16l.66.06.35,1.37c.21-.34.32-.52.42-.7.06,1.25-1,1.18-1.72,1.46a6.71,6.71,0,0,1-4.9-.42,13.69,13.69,0,0,1-3.24-1.8c-.37-.28-.33-1.1-.46-1.68a3,3,0,0,1,0-.52c-.75.56-.34,1-.24,1.63a4.55,4.55,0,0,1-.76-.68,26.91,26.91,0,0,1-2.08-3.05,12.63,12.63,0,0,1-.95-2.9,8.24,8.24,0,0,1-.34-2.59c0-.57-.11-1.44.86-1.65.18,0,.29-.4.44-.62a1.5,1.5,0,0,1,1.8-.6c.53.12,1.13-.11,1.68,0,.79.11,1.56.33,2.34.51,1.39.32,2.79.64,4.17,1,2.47.61,4.73,1.58,6.17,3.83.43.65.8,1.34,1.18,2,1.31,2.3.32,4.5-1.82,5.78-.32.19-.66.34-1.16.59" transform="translate(-27 -24.36)"></path><path class="cls-24" d="M46.24,101.37c-.43,2.53-1.21,4.85-3.44,6.4a3.75,3.75,0,0,1-4,0,8.07,8.07,0,0,1-4.31-4.67,22.12,22.12,0,0,1-1.73-6.73,11.72,11.72,0,0,1,2.36-7.53c1.09-1.5,2.78-1.74,4.52-.72a10.15,10.15,0,0,1,4.62,5.55c.44,1.29,1,2.54,1.39,3.86a37.2,37.2,0,0,1,.6,3.85" transform="translate(-27 -24.36)"></path><path class="cls-24" d="M56.78,85l.61-.36a11.25,11.25,0,0,1,4.46,6.74,4.67,4.67,0,0,1-2.31,5.48,6.47,6.47,0,0,1-3.73,1.2,7.64,7.64,0,0,1-4.69-1.81A13.87,13.87,0,0,1,47,89a23.2,23.2,0,0,1-1-6,2.84,2.84,0,0,1,3.6-3,11.33,11.33,0,0,1,6,3.12A9.3,9.3,0,0,1,56.78,85" transform="translate(-27 -24.36)"></path><path class="cls-24" d="M70.39,102.37l-.1-.2c-.26.15-.52.43-.79.44-.89,0-.89,0-1.12.74l1.16.13,0-.22-.73-.17,1.55-.72m1.53,3,.41.37c-1.39,1-2.18,1.15-2.3.42-1.1.86-1.64-.31-2.52-.58L68,105c-.14-.09-.35-.26-.39-.22-.51.38-.77,0-.93-.35a14.56,14.56,0,0,1-1.56-4.76,20.51,20.51,0,0,1,.77-7.07,3.83,3.83,0,0,0,.09-.56c0-.92.24-1,1.18-.66-.94-.76-.27-1.32.16-1.85s1-1,1.53-1.6,1.3,0,1.89-.32c0,.14.09.28.13.41.63-.36.65-.34.66.59l.75-.41.35,1a1.71,1.71,0,0,1,1.11.57,18.79,18.79,0,0,1,2.24,3.67,9.44,9.44,0,0,1,.77,4.69,14.37,14.37,0,0,1-.15,2,4.32,4.32,0,0,1-2,3.41c-.06,0-.06.15-.09.23a1.82,1.82,0,0,1-1.9,1.42,2.63,2.63,0,0,0-.48.06c-.05,0-.08.07-.2.19" transform="translate(-27 -24.36)"></path><path class="cls-24" d="M44.28,79.75a2.81,2.81,0,0,1,.31-3.07A2.64,2.64,0,0,1,47.16,76c.62.14,1.25.26,1.88.46-1.87.64-3.83,1.06-4.76,3.28" transform="translate(-27 -24.36)"></path><path class="cls-24" d="M33,86.37c-.23-1.73.93-3.73,2.32-4a2.4,2.4,0,0,1,2.39,1,6.39,6.39,0,0,0-4.71,3" transform="translate(-27 -24.36)"></path><path class="cls-24" d="M27.17,110a3,3,0,0,1,.54-2.85c.67-.51,1.55-.33,2.52.53-1.73-.13-2.3,1.22-3.06,2.32" transform="translate(-27 -24.36)"></path><path class="cls-24" d="M68.4,83.79A3.93,3.93,0,0,0,65,85.53c0-.93-.35-1.88.57-2.39s2,.13,2.88.65" transform="translate(-27 -24.36)"></path><path class="cls-24" d="M187.77,65.77a12.24,12.24,0,0,1-1.48,2,7.4,7.4,0,0,1-1.86,1l-.15-.27,3.28-2.88.21.16" transform="translate(-27 -24.36)"></path><path class="cls-24" d="M182,72.06c.3-.55.54-1,.8-1.41.06-.09.28-.19.3-.16a3.32,3.32,0,0,1,.72,1c-.82-.39-1,1.28-1.82.53" transform="translate(-27 -24.36)"></path><path class="cls-24" d="M101.31,76.79l.32,1.55-.48-.16.09,1.66H101v-3l.28,0" transform="translate(-27 -24.36)"></path><path class="cls-24" d="M189.28,63.25c-.34.55-.57,1-.85,1.35-.08.11-.32.08-.49.12,0-.22-.17-.57-.08-.64a12.81,12.81,0,0,1,1.42-.83" transform="translate(-27 -24.36)"></path><path class="cls-24" d="M88.68,72.44l-.36.19c-.27.16-.57.24-.45-.23a.88.88,0,0,1,.54-.57c.25,0,.54.18,1,.35l-.71.26" transform="translate(-27 -24.36)"></path><path class="cls-24" d="M116.07,111.26l2.25,1.46" transform="translate(-27 -24.36)"></path><path class="cls-24" d="M161.8,106.86c.6.18.68.74.13,1.8-.05-.73-.09-1.26-.13-1.8" transform="translate(-27 -24.36)"></path></g></svg> 